# xmcd
#
# Track frame offsets:
#	150
#	21602
#	36940
#	54289
#	71517
#	85341
#	98478
#	110710
#	126307
#	139757
#	157635
#	175022
#	190180
#	203797
#	220758
#	239714
#
# Disc length: 3365 seconds
#
# Revision: 1
# Processed by: cddbd v1.5.1PL2 Copyright (c) Steve Scherf et al.
# Submitted via: audiograbber 1.83.01
#
DISCID=df0d2310
DTITLE=Diverse Interpreten - Dreams of Love 2
DYEAR=1900
DGENRE=
TTITLE0=Impossible Dream
TTITLE1=Neverending Story
TTITLE2=Reviens
TTITLE3=Daniel
TTITLE4=Runaway
TTITLE5=Whats Another year
TTITLE6=Wild Thing
TTITLE7=Simple Thing
TTITLE8=One Voice
TTITLE9=Bacciana Brasileros
TTITLE10=Send me an Angel
TTITLE11=I Need more of you
TTITLE12=The First Hello The Last Goodbay
TTITLE13=Please Dont Go
TTITLE14=Honey
TTITLE15=Thats Nice
EXTD=Schallplatte
EXTT0=
EXTT1=
EXTT2=
EXTT3=
EXTT4=
EXTT5=
EXTT6=
EXTT7=
EXTT8=
EXTT9=
EXTT10=
EXTT11=
EXTT12=
EXTT13=
EXTT14=
EXTT15=
PLAYORDER=
